<svg width="23" height="21" viewBox="0 0 23 21" fill="none" xmlns="http://www.w3.org/2000/svg">
<path d="M20.7102 20.6299H1.99187C0.787476 20.6299 0 19.7293 0 18.58V8.22161C0 7.02926 0.828 6.02201 1.99187 6.02201H7.52465L7.94267 4.03451C8.1891 3.04624 9.0609 2.37012 10.0674 2.37012H12.8336C13.8402 2.37012 14.7123 3.04624 14.954 4.0148L15.376 6.02201H20.7102C21.8668 6.02201 23 7.02926 23 8.22161V18.58C23 19.7486 21.927 20.6299 20.7102 20.6299ZM1.99187 7.11761C1.43111 7.11761 1.09524 7.63347 1.09524 8.22161V18.58C1.09524 19.1331 1.38183 19.5343 1.99187 19.5343H20.7102C21.3122 19.5343 21.9048 19.1331 21.9048 18.58V8.22161C21.9048 7.63347 21.2637 7.11761 20.7102 7.11761H14.9314C14.6722 7.11761 14.4487 6.93617 14.3958 6.6828L13.8869 4.26013C13.7719 3.80086 13.3367 3.46572 12.8336 3.46572H10.0674C9.56435 3.46572 9.12954 3.80086 9.00979 4.27985L8.50525 6.6828C8.45195 6.93617 8.22852 7.11761 7.96932 7.11761H1.99187Z" fill="#B9C3C9"/>
<path d="M11.2305 16.7867C9.21856 16.7867 7.58191 15.1493 7.58191 13.1374C7.58191 11.1247 9.21856 9.48767 11.2305 9.48767C13.2417 9.48767 14.8788 11.1247 14.8788 13.1374C14.8788 15.1493 13.2417 16.7867 11.2305 16.7867ZM11.2305 10.5833C9.8224 10.5833 8.67715 11.7289 8.67715 13.1374C8.67715 14.5455 9.8224 15.6911 11.2305 15.6911C12.6383 15.6911 13.7835 14.5455 13.7835 13.1374C13.7835 11.7289 12.6383 10.5833 11.2305 10.5833Z" fill="#B9C3C9"/>
<path d="M11.2306 18.7432C8.14016 18.7432 5.62585 16.2282 5.62585 13.1374C5.62585 10.0459 8.14016 7.53125 11.2306 7.53125C14.3206 7.53125 16.8345 10.0459 16.8345 13.1374C16.8345 16.2282 14.3206 18.7432 11.2306 18.7432ZM11.2306 8.62649C8.744 8.62649 6.72109 10.6501 6.72109 13.1374C6.72109 15.6243 8.744 17.6476 11.2306 17.6476C13.7167 17.6476 15.7393 15.6243 15.7393 13.1374C15.7393 10.6501 13.7167 8.62649 11.2306 8.62649Z" fill="#B9C3C9"/>
<rect x="18" width="1" height="5" rx="0.5" fill="#B9C3C9"/>
<rect x="16" y="3" width="1" height="5" rx="0.5" transform="rotate(-90 16 3)" fill="#B9C3C9"/>
</svg>
