<svg width="16" height="9" viewBox="0 0 16 9" fill="none" xmlns="http://www.w3.org/2000/svg">
<path d="M15.6992 0.900499C15.6993 0.97361 15.6849 1.04601 15.6569 1.11357C15.629 1.18113 15.588 1.24251 15.5363 1.29423L8.67479 8.15538C8.57041 8.25974 8.42885 8.31836 8.28125 8.31836C8.13365 8.31836 7.99209 8.25974 7.8877 8.15538L1.02618 1.29423C0.974475 1.24255 0.933455 1.18119 0.905463 1.11366C0.877471 1.04612 0.863054 0.973735 0.863037 0.90063C0.86302 0.827525 0.877402 0.755133 0.905362 0.687585C0.933323 0.620039 0.974313 0.558659 1.02599 0.506954C1.07768 0.455248 1.13903 0.414229 1.20657 0.386237C1.2741 0.358245 1.34649 0.343828 1.41959 0.343811C1.4927 0.343793 1.56509 0.358176 1.63264 0.386136C1.70019 0.414096 1.76156 0.455088 1.81327 0.506769L8.28106 6.97456L14.7489 0.506769C14.8267 0.42887 14.9259 0.375814 15.0339 0.354316C15.1419 0.332817 15.2539 0.34384 15.3556 0.385991C15.4574 0.428143 15.5443 0.499529 15.6055 0.591115C15.6667 0.6827 15.6993 0.790369 15.6992 0.900499Z" fill="#4F6072"/>
</svg>
