<svg width="19" height="20" viewBox="0 0 19 20" fill="none" xmlns="http://www.w3.org/2000/svg">
<path d="M7.5 0.59375C4.72983 0.59375 2.46875 2.85483 2.46875 5.625C2.46875 7.35636 3.35365 8.89684 4.69238 9.80273C2.1285 10.9023 0.3125 13.4459 0.3125 16.4062H1.75C1.75 13.2217 4.31546 10.6562 7.5 10.6562C9.04247 10.6562 10.4202 11.2877 11.4531 12.2734L8.21875 15.5078L8.06152 15.665L8.0166 15.8896L7.52246 18.4277L7.29785 19.4834L8.35352 19.2588L10.8916 18.7646L11.1162 18.7197L11.2734 18.5625L18.3711 11.4648C19.2063 10.6297 19.2063 9.24531 18.3711 8.41016C17.9535 7.99258 17.3965 7.78125 16.8438 7.78125C16.291 7.78125 15.734 7.99258 15.3164 8.41016L12.4863 11.2402C11.8612 10.638 11.1178 10.1494 10.3076 9.80273C11.6464 8.89684 12.5313 7.35636 12.5313 5.625C12.5313 2.85483 10.2702 0.59375 7.5 0.59375ZM7.5 2.03125C9.49329 2.03125 11.0938 3.63171 11.0938 5.625C11.0938 7.61829 9.49329 9.21875 7.5 9.21875C5.50671 9.21875 3.90625 7.61829 3.90625 5.625C3.90625 3.63171 5.50671 2.03125 7.5 2.03125ZM16.8438 9.21875C17.0255 9.21875 17.2173 9.27785 17.3604 9.4209C17.6386 9.69914 17.6458 10.1229 17.3828 10.4092L17.3604 10.4316L10.3975 17.3945L9.11719 17.6641L9.38672 16.3838L16.3496 9.4209C16.4927 9.27785 16.662 9.21875 16.8438 9.21875Z" fill="#B9C3C9"/>
</svg>
