<svg width="24" height="32" viewBox="0 0 24 32" fill="none" xmlns="http://www.w3.org/2000/svg">
<mask id="path-1-inside-1_2_313" fill="white">
<path d="M23.75 6.24992V29.3749C23.75 30.4137 22.9137 31.2499 21.875 31.2499H1.87503C0.836263 31.2499 0 30.4137 0 29.3749V1.87492C0 0.836174 0.836263 0 1.87503 0H17.5"/>
</mask>
<path d="M22.75 6.24992V29.3749H24.75V6.24992H22.75ZM22.75 29.3749C22.75 29.8614 22.3615 30.2499 21.875 30.2499V32.2499C23.466 32.2499 24.75 30.966 24.75 29.3749H22.75ZM21.875 30.2499H1.87503V32.2499H21.875V30.2499ZM1.87503 30.2499C1.38853 30.2499 1 29.8614 1 29.3749H-1C-1 30.966 0.283991 32.2499 1.87503 32.2499V30.2499ZM1 29.3749V1.87492H-1V29.3749H1ZM1 1.87492C1 1.38852 1.38848 1 1.87503 1V-1C0.284044 -1 -1 0.283823 -1 1.87492H1ZM1.87503 1H17.5V-1H1.87503V1Z" fill="#B9C3C9" mask="url(#path-1-inside-1_2_313)"/>
<path d="M17.5 0V4.37492C17.5 5.41367 18.3363 6.24992 19.375 6.24992H23.75L17.5 0Z" fill="#B9C3C9"/>
<path fill-rule="evenodd" clip-rule="evenodd" d="M5.00976 13.1241C4.92694 13.1229 4.84471 13.1382 4.76785 13.1691C4.691 13.2 4.62105 13.2458 4.56207 13.304C4.50309 13.3621 4.45625 13.4314 4.42428 13.5078C4.39232 13.5843 4.37585 13.6663 4.37585 13.7491C4.37585 13.8319 4.39232 13.9139 4.42428 13.9903C4.45625 14.0667 4.50309 14.136 4.56207 14.1942C4.62105 14.2523 4.691 14.2982 4.76785 14.3291C4.84471 14.36 4.92694 14.3753 5.00976 14.3741H13.291H18.75C18.8328 14.3753 18.915 14.36 18.9919 14.3291C19.0687 14.2982 19.1387 14.2523 19.1977 14.1942C19.2567 14.136 19.3035 14.0667 19.3355 13.9903C19.3674 13.9139 19.3839 13.8319 19.3839 13.7491C19.3839 13.6663 19.3674 13.5843 19.3355 13.5078C19.3035 13.4314 19.2567 13.3621 19.1977 13.304C19.1387 13.2458 19.0687 13.2 18.9919 13.1691C18.915 13.1382 18.8328 13.1229 18.75 13.1241H13.291H5.00976Z" fill="#B9C3C9"/>
<path fill-rule="evenodd" clip-rule="evenodd" d="M5.00976 15.6241C4.92694 15.6229 4.84471 15.6382 4.76785 15.6691C4.691 15.7 4.62105 15.7458 4.56207 15.804C4.50309 15.8621 4.45625 15.9314 4.42428 16.0078C4.39232 16.0843 4.37585 16.1663 4.37585 16.2491C4.37585 16.3319 4.39232 16.4139 4.42428 16.4903C4.45625 16.5667 4.50309 16.636 4.56207 16.6942C4.62105 16.7523 4.691 16.7982 4.76785 16.8291C4.84471 16.86 4.92694 16.8753 5.00976 16.8741H13.291H18.75C18.8328 16.8753 18.915 16.86 18.9919 16.8291C19.0687 16.7982 19.1387 16.7523 19.1977 16.6942C19.2567 16.636 19.3035 16.5667 19.3355 16.4903C19.3674 16.4139 19.3839 16.3319 19.3839 16.2491C19.3839 16.1663 19.3674 16.0843 19.3355 16.0078C19.3035 15.9314 19.2567 15.8621 19.1977 15.804C19.1387 15.7458 19.0687 15.7 18.9919 15.6691C18.915 15.6382 18.8328 15.6229 18.75 15.6241H13.291H5.00976Z" fill="#B9C3C9"/>
<path fill-rule="evenodd" clip-rule="evenodd" d="M5.00976 20.6241C4.92694 20.6229 4.84471 20.6382 4.76785 20.6691C4.691 20.7 4.62105 20.7458 4.56207 20.804C4.50309 20.8621 4.45625 20.9314 4.42428 21.0078C4.39232 21.0843 4.37585 21.1663 4.37585 21.2491C4.37585 21.3319 4.39232 21.4139 4.42428 21.4903C4.45625 21.5667 4.50309 21.636 4.56207 21.6942C4.62105 21.7523 4.691 21.7982 4.76785 21.8291C4.84471 21.86 4.92694 21.8753 5.00976 21.8741H10.4687H13.75C13.8328 21.8753 13.915 21.86 13.9919 21.8291C14.0687 21.7982 14.1387 21.7523 14.1977 21.6942C14.2567 21.636 14.3035 21.5667 14.3355 21.4903C14.3674 21.4139 14.3839 21.3319 14.3839 21.2491C14.3839 21.1663 14.3674 21.0843 14.3355 21.0078C14.3035 20.9314 14.2567 20.8621 14.1977 20.804C14.1387 20.7458 14.0687 20.7 13.9919 20.6691C13.915 20.6382 13.8328 20.6229 13.75 20.6241H10.4687H5.00976ZM16.25 20.6241C16.1672 20.6229 16.0849 20.6382 16.0081 20.6691C15.9312 20.7 15.8613 20.7458 15.8023 20.804C15.7433 20.8621 15.6965 20.9314 15.6645 21.0078C15.6326 21.0843 15.6161 21.1663 15.6161 21.2491C15.6161 21.3319 15.6326 21.4139 15.6645 21.4903C15.6965 21.5667 15.7433 21.636 15.8023 21.6942C15.8613 21.7523 15.9312 21.7982 16.0081 21.8291C16.0849 21.86 16.1672 21.8753 16.25 21.8741C16.3328 21.8753 16.415 21.86 16.4919 21.8291C16.5687 21.7982 16.6387 21.7523 16.6977 21.6942C16.7567 21.636 16.8035 21.5667 16.8355 21.4903C16.8674 21.4139 16.8839 21.3319 16.8839 21.2491C16.8839 21.1663 16.8674 21.0843 16.8355 21.0078C16.8035 20.9314 16.7567 20.8621 16.6977 20.804C16.6387 20.7458 16.5687 20.7 16.4919 20.6691C16.415 20.6382 16.3328 20.6229 16.25 20.6241Z" fill="#B9C3C9"/>
<path fill-rule="evenodd" clip-rule="evenodd" d="M5.00976 18.1241C4.92694 18.1229 4.84471 18.1382 4.76785 18.1691C4.691 18.2 4.62105 18.2458 4.56207 18.304C4.50309 18.3621 4.45625 18.4314 4.42428 18.5078C4.39232 18.5843 4.37585 18.6663 4.37585 18.7491C4.37585 18.8319 4.39232 18.9139 4.42428 18.9903C4.45625 19.0667 4.50309 19.136 4.56207 19.1942C4.62105 19.2523 4.691 19.2982 4.76785 19.3291C4.84471 19.36 4.92694 19.3753 5.00976 19.3741H13.291H18.75C18.8328 19.3753 18.915 19.36 18.9919 19.3291C19.0687 19.2982 19.1387 19.2523 19.1977 19.1942C19.2567 19.136 19.3035 19.0667 19.3355 18.9903C19.3674 18.9139 19.3839 18.8319 19.3839 18.7491C19.3839 18.6663 19.3674 18.5843 19.3355 18.5078C19.3035 18.4314 19.2567 18.3621 19.1977 18.304C19.1387 18.2458 19.0687 18.2 18.9919 18.1691C18.915 18.1382 18.8328 18.1229 18.75 18.1241H13.291H5.00976Z" fill="#B9C3C9"/>
</svg>
