<svg width="53" height="31" viewBox="0 0 53 31" fill="none" xmlns="http://www.w3.org/2000/svg">
<path d="M13.7028 1.8786H24.6527" stroke="#455669" stroke-width="2" stroke-miterlimit="2.6131" stroke-linecap="round" stroke-linejoin="round"/>
<path d="M24.6527 1.8786C25.4469 1.8786 26.0977 2.532 26.0977 3.32092" stroke="#455669" stroke-width="2" stroke-miterlimit="2.6131" stroke-linecap="round" stroke-linejoin="round"/>
<path d="M26.0977 3.32092V23.4068" stroke="#455669" stroke-width="2" stroke-miterlimit="2.6131" stroke-linecap="round" stroke-linejoin="round"/>
<path d="M26.0977 23.4068C26.0977 24.197 25.4443 24.849 24.6527 24.849" stroke="#455669" stroke-width="2" stroke-miterlimit="2.6131" stroke-linecap="round" stroke-linejoin="round"/>
<path d="M24.6527 24.849H8.89905" stroke="#455669" stroke-width="2" stroke-miterlimit="2.6131" stroke-linecap="round" stroke-linejoin="round"/>
<path d="M8.89898 24.849C8.11138 24.849 7.45667 24.1982 7.45667 23.4068" stroke="#455669" stroke-width="2" stroke-miterlimit="2.6131" stroke-linecap="round" stroke-linejoin="round"/>
<path d="M7.45667 23.4068V7.65701L13.7027 1.8786" stroke="#455669" stroke-width="2" stroke-miterlimit="2.6131" stroke-linecap="round" stroke-linejoin="round"/>
<path d="M13.9976 1.8786V7.07808" stroke="#455669" stroke-width="2" stroke-miterlimit="2.6131" stroke-linecap="round" stroke-linejoin="round"/>
<path d="M13.9976 7.07806C13.9976 7.50178 13.6456 7.85236 13.2233 7.85236" stroke="#455669" stroke-width="2" stroke-miterlimit="2.6131" stroke-linecap="round" stroke-linejoin="round"/>
<path d="M13.2232 7.85236H7.45667" stroke="#455669" stroke-width="2" stroke-miterlimit="2.6131" stroke-linecap="round" stroke-linejoin="round"/>
<path fill-rule="evenodd" clip-rule="evenodd" d="M34.1139 19.3694C34.5668 19.7467 34.7939 20.3309 34.7939 21.1145C34.7939 21.902 34.5602 22.4797 34.0994 22.8463C33.6372 23.2103 32.9293 23.3962 31.9745 23.3962H30.8204V25.3019H29.7234V18.8009H31.9559C32.9425 18.801 33.6611 18.9922 34.1139 19.3694ZM33.3383 22.0548C33.5574 21.8197 33.6662 21.4784 33.6662 21.0282C33.6662 20.578 33.5282 20.2593 33.2492 20.0733C32.9676 19.8874 32.5334 19.7944 31.9345 19.7944H30.8202V22.4001H32.0952C32.7022 22.4001 33.1164 22.2832 33.3383 22.0548Z" fill="#455669"/>
<path fill-rule="evenodd" clip-rule="evenodd" d="M41.0052 19.6536C41.6321 20.2167 41.9442 21.0083 41.9442 22.0203C41.9442 23.0283 41.6401 23.8291 41.0344 24.4188C40.4262 25.0085 39.4966 25.302 38.2428 25.302H36.0847V18.801H38.3172C39.4833 18.801 40.3798 19.0825 41.0052 19.6536ZM40.838 22.0469C40.838 20.5595 39.984 19.813 38.2801 19.813H37.1831V24.2701H38.4009C39.1871 24.2701 39.7914 24.0828 40.211 23.7096C40.6295 23.3324 40.838 22.7799 40.838 22.0469Z" fill="#455669"/>
<path fill-rule="evenodd" clip-rule="evenodd" d="M44.4542 19.8237V21.6099H47.3387V22.6232H44.4542V25.3019H43.3572V18.801H47.6921L47.6827 19.8237H44.4542Z" fill="#455669"/>
<path d="M29.7749 14.9788H49.1276" stroke="#455669" stroke-width="2" stroke-miterlimit="2.6131" stroke-linecap="round" stroke-linejoin="round"/>
<path d="M49.1277 14.9788C50.3018 14.9788 51.25 15.9298 51.25 17.1011" stroke="#455669" stroke-width="2" stroke-miterlimit="2.6131" stroke-linecap="round" stroke-linejoin="round"/>
<path d="M51.25 17.1011V27.002" stroke="#455669" stroke-width="2" stroke-miterlimit="2.6131" stroke-linecap="round" stroke-linejoin="round"/>
<path d="M51.25 27.002C51.25 28.1732 50.3018 29.1215 49.1277 29.1215" stroke="#455669" stroke-width="2" stroke-miterlimit="2.6131" stroke-linecap="round" stroke-linejoin="round"/>
<path d="M49.1276 29.1214H3.87219" stroke="#455669" stroke-width="2" stroke-miterlimit="2.6131" stroke-linecap="round" stroke-linejoin="round"/>
<path d="M3.87223 29.1214C2.70095 29.1214 1.75 28.1732 1.75 27.0018" stroke="#455669" stroke-width="2" stroke-miterlimit="2.6131" stroke-linecap="round" stroke-linejoin="round"/>
<path d="M1.75 27.002V17.1011" stroke="#455669" stroke-width="2" stroke-miterlimit="2.6131" stroke-linecap="round" stroke-linejoin="round"/>
<path d="M1.75 17.1011C1.75 15.9298 2.70095 14.9788 3.87223 14.9788" stroke="#455669" stroke-width="2" stroke-miterlimit="2.6131" stroke-linecap="round" stroke-linejoin="round"/>
<path d="M16.9684 8.55615V21.404" stroke="#455669" stroke-width="2" stroke-miterlimit="2.6131" stroke-linecap="round" stroke-linejoin="round"/>
<path d="M16.9684 21.404L21.0349 17.336" stroke="#455669" stroke-width="2" stroke-miterlimit="2.6131" stroke-linecap="round" stroke-linejoin="round"/>
<path d="M16.9683 21.404L12.5193 16.9523" stroke="#455669" stroke-width="2" stroke-miterlimit="2.6131" stroke-linecap="round" stroke-linejoin="round"/>
</svg>
