<svg width="26" height="26" viewBox="0 0 26 26" fill="none" xmlns="http://www.w3.org/2000/svg">
<path d="M20.5156 7.51562C20.5156 3.3716 17.144 0 13 0C8.85597 0 5.48438 3.3716 5.48438 7.51562C5.48438 10.0825 6.77831 12.3525 8.74767 13.7092C6.90883 14.3435 5.22353 15.3917 3.8076 16.8076C1.35225 19.263 0 22.5276 0 26H2.03125C2.03125 19.9519 6.95187 15.0312 13 15.0312C17.144 15.0312 20.5156 11.6597 20.5156 7.51562ZM13 13C9.97594 13 7.51562 10.5397 7.51562 7.51562C7.51562 4.49156 9.97594 2.03125 13 2.03125C16.0241 2.03125 18.4844 4.49156 18.4844 7.51562C18.4844 10.5397 16.0241 13 13 13ZM16.3516 19.9053H26V21.9365H16.3516V19.9053ZM26 15.8438V17.875H16.3516V15.8438H26ZM16.3516 23.9688H26V26H16.3516V23.9688Z" fill="#455669"/>
</svg>
