<svg width="32" height="22" viewBox="0 0 32 22" fill="none" xmlns="http://www.w3.org/2000/svg">
<path d="M2.60417 2.29171C2.08333 2.29171 1.89062 2.97504 2.32292 3.25212L14.649 11.3563C15.274 11.7677 16.076 11.773 16.701 11.3563L28.9167 3.26254C29.5187 2.89483 28.9062 1.99171 28.3437 2.39379L16.1271 10.4875C15.7865 10.7146 15.5646 10.7125 15.2208 10.4875L2.89896 2.38025C2.81042 2.32296 2.71042 2.29171 2.60417 2.29171ZM1.5625 0.208374C0.70625 0.208374 0 0.914624 0 1.77087V19.4792C0 20.3355 0.70625 21.0417 1.5625 21.0417H29.6875C30.5437 21.0417 31.25 20.3355 31.25 19.4792V1.77087C31.25 0.914624 30.5437 0.208374 29.6875 0.208374H1.5625ZM1.5625 1.25004H29.6875C29.9854 1.25004 30.2083 1.47296 30.2083 1.77087V19.4792C30.2083 19.7771 29.9854 20 29.6875 20H1.5625C1.26458 20 1.04167 19.7771 1.04167 19.4792V1.77087C1.04167 1.47296 1.26458 1.25004 1.5625 1.25004Z" fill="#B9C3C9"/>
</svg>
