<svg width="26" height="27" viewBox="0 0 26 27" fill="none" xmlns="http://www.w3.org/2000/svg">
<path d="M6.7851 27C4.95718 27 3.24633 26.2345 2.01094 25.015C-0.382818 22.6521 -1.05014 18.5268 2.30595 15.214C4.27234 13.2729 12.149 5.49828 16.081 1.61618C17.4768 0.238336 19.2535 -0.293588 20.9544 0.156269C22.6249 0.597891 23.9941 1.94883 24.4414 3.59758C24.8972 5.27761 24.3583 7.03092 22.9628 8.40876L9.78946 21.4126C9.03733 22.1551 8.18788 22.5945 7.3337 22.6837C6.48814 22.7715 5.68068 22.5028 5.11567 21.9454C4.09077 20.9339 3.94479 19.0302 5.64842 17.3494L14.9015 8.21499C15.2816 7.83979 15.8974 7.83979 16.2775 8.21499C16.6576 8.59019 16.6576 9.19841 16.2775 9.57334L7.02478 18.7074C6.22483 19.4968 6.15142 20.2505 6.49203 20.5867C6.64135 20.7341 6.86796 20.8005 7.12905 20.7728C7.52973 20.7311 7.98601 20.4756 8.41338 20.0537L21.5867 7.05041C22.4904 6.15838 22.8368 5.10881 22.5615 4.09546C22.2904 3.09722 21.4624 2.27984 20.4511 2.01224C19.4248 1.74051 18.3613 2.0825 17.457 2.9748C13.5254 6.85609 5.64842 14.6318 3.68203 16.5723C1.11561 19.1057 1.7301 22.0206 3.38702 23.6561C5.04394 25.2917 7.99658 25.8988 10.5638 23.3652L24.3388 9.76739C24.7189 9.39219 25.3348 9.39219 25.7149 9.76739C26.095 10.1426 26.095 10.7508 25.7149 11.1257L11.9399 24.7238C10.3164 26.327 8.49902 27 6.7851 27Z" fill="#455669"/>
</svg>
