<svg width="23" height="22" viewBox="0 0 23 22" fill="none" xmlns="http://www.w3.org/2000/svg">
<path d="M7.00781 8.29508C5.83651 8.29508 4.83788 9.04897 4.46709 10.0984H0V11.9016H4.46709C4.83788 12.951 5.83651 13.7049 7.00781 13.7049C8.17912 13.7049 9.17775 12.951 9.54853 11.9016H23V10.0984H9.54853C9.17775 9.04897 8.17912 8.29508 7.00781 8.29508ZM7.00781 11.9016C6.51244 11.9016 6.10938 11.4971 6.10938 11C6.10938 10.5029 6.51244 10.0984 7.00781 10.0984C7.50318 10.0984 7.90625 10.5029 7.90625 11C7.90625 11.4971 7.50318 11.9016 7.00781 11.9016ZM19.072 1.80328C18.7012 0.75389 17.7026 0 16.5312 0C15.3599 0 14.3613 0.75389 13.9905 1.80328H0V3.60656H13.9905C14.3613 4.65595 15.3599 5.40984 16.5312 5.40984C17.7026 5.40984 18.7012 4.65595 19.072 3.60656H23V1.80328H19.072ZM16.5312 3.60656C16.0359 3.60656 15.6328 3.20205 15.6328 2.70492C15.6328 2.20778 16.0359 1.80328 16.5312 1.80328C17.0266 1.80328 17.4297 2.20778 17.4297 2.70492C17.4297 3.20205 17.0266 3.60656 16.5312 3.60656ZM14.8242 16.5902C13.6529 16.5902 12.6543 17.3441 12.2835 18.3934H0V20.1967H12.2835C12.6543 21.2461 13.6529 22 14.8242 22C15.9955 22 16.9942 21.2461 17.3649 20.1967H23V18.3934H17.3649C16.9942 17.3441 15.9955 16.5902 14.8242 16.5902ZM14.8242 20.1967C14.3288 20.1967 13.9258 19.7922 13.9258 19.2951C13.9258 18.7979 14.3288 18.3934 14.8242 18.3934C15.3196 18.3934 15.7227 18.7979 15.7227 19.2951C15.7227 19.7922 15.3196 20.1967 14.8242 20.1967Z" fill="#B9C3C9"/>
</svg>
